# xmcd CD database file
#
# Track frame offsets:
#	150
#	14867
#	29102
#	40687
#	53922
#	68050
#	81257
#	104515
#	114862
#	130552
#	143582
#	150860
#	164500
#	177442
#	190650
#	205455
#	217967
#	232245
#	246383
#	264730
#	276753
#	289713
#	304125
#	318575
#
# Disc length: 4429 seconds
#
# Revision: 0
# Processed by: cddbd v1.5.2PL0 Copyright (c) Steve Scherf et al.
# Submitted via: CDex 1.51
#
DISCID=65114b18
DTITLE=Various Artist - Wie man mit Jazz die Herzen der Frauen gewinnt [CD3] - Die bösen Frauen
DYEAR=1999
DGENRE=Jazz
TTITLE0=My Gal Is Gone, Hot Lips Page 1944
TTITLE1=Love Me Or Leave Me, Teddy Grace 1938
TTITLE2=Love Me Or Leave Me, Count Basie 1939
TTITLE3=Evil Gal Blues, Dinah Washington 1943
TTITLE4=Stompin' At The Savoy, Gene Krupa 1945
TTITLE5=I Wish You Were Mine, T-Bone Walker 1947
TTITLE6=The Man I Love, Coleman Hawkins 1943
TTITLE7=Travelin' All Alone, Billie Holiday 1937
TTITLE8=Evil Man's Blues, Hot Lips Page 1940
TTITLE9=Sweet Sue, Django Reinhardt 1940
TTITLE10=Dark Eyes, Slim and Slam 1938
TTITLE11=Dark Eyes, Charlie Ventura 1945
TTITLE12=You Call It Madness, But I Call It Love, Nat King Cole 40er Jahre
TTITLE13=You Call It Madness, But I Call It Love, Don Byas 1945
TTITLE14=Stormy Weather, Kay Starr 1945
TTITLE15=Tea For Two, Willie Smith 1946
TTITLE16=Tea For Two, Lester Young 1947
TTITLE17=I Love My Man, Billie Holiday 1944
TTITLE18=Victory Stride, James P. Johnson 1944
TTITLE19=You're Gonna Miss Me, Muddy Waters 1949
TTITLE20=Rockin' At Ryans, Hot Lips Page 1944
TTITLE21=Be-Bop, Dizzy Gillespie 1945
TTITLE22=Telephoning The Blues, Victoria Spivey 1929
TTITLE23='Nuff Said, Ben Webster 1944
EXTD=YEAR: 1999
EXTT0=
EXTT1=
EXTT2=
EXTT3=
EXTT4=
EXTT5=
EXTT6=
EXTT7=
EXTT8=
EXTT9=
EXTT10=
EXTT11=
EXTT12=
EXTT13=
EXTT14=
EXTT15=
EXTT16=
EXTT17=
EXTT18=
EXTT19=
EXTT20=
EXTT21=
EXTT22=
EXTT23=
PLAYORDER=
